# Blender 5.0.1
# www.blender.org
mtllib bicak.mtl
o Minecraft_Sword_Minecraft_Sword_Material_0
v -0.105921 -0.042178 0.179691
v -0.095385 -0.035486 0.168585
v -0.115357 -0.028415 0.179031
v -0.104820 -0.021723 0.167925
v 0.015568 0.038122 0.117221
v 0.005032 0.031430 0.128327
v 0.006133 0.051884 0.116561
v -0.004404 0.045193 0.127667
v -0.171286 -0.088914 0.139591
v -0.160756 -0.082223 0.128577
v -0.162397 -0.082223 0.152056
v -0.151861 -0.075531 0.140949
v -0.211785 -0.115681 0.160445
v -0.202896 -0.108989 0.172910
v -0.221220 -0.101918 0.159785
v -0.212332 -0.095227 0.172250
v -0.025471 0.031809 0.149787
v -0.016583 0.038501 0.162252
v -0.014941 0.038501 0.138773
v -0.006046 0.045193 0.151146
v -0.005505 0.024739 0.139433
v -0.016035 0.018047 0.150447
v -0.014394 0.018047 0.126969
v -0.024930 0.011355 0.138075
v -0.017684 0.018047 0.174018
v -0.007147 0.024739 0.162912
v -0.027119 0.031809 0.173358
v -0.016583 0.038501 0.162252
v -0.171833 -0.068460 0.151396
v -0.161296 -0.061768 0.140290
v -0.180722 -0.075152 0.138931
v -0.170191 -0.068460 0.127917
v 0.033345 0.051505 0.142150
v 0.024457 0.044813 0.129685
v 0.023910 0.065268 0.141490
v 0.015021 0.058576 0.129025
v 0.004484 0.051884 0.140132
v 0.015021 0.058576 0.129025
v -0.004404 0.045193 0.127667
v 0.006133 0.051884 0.116561
v -0.014394 0.018047 0.126969
v -0.024930 0.011355 0.138075
v -0.023829 0.031809 0.126309
v -0.034366 0.025118 0.137415
v 0.022815 0.044813 0.153164
v 0.033345 0.051505 0.142150
v 0.031704 0.051505 0.165628
v 0.042240 0.058197 0.154522
v -0.227920 -0.129064 0.112037
v -0.236808 -0.135756 0.099573
v -0.237356 -0.115301 0.111378
v -0.246244 -0.121993 0.098913
v -0.087697 -0.015032 0.062628
v -0.077161 -0.008340 0.051521
v -0.078262 -0.028794 0.063287
v -0.067725 -0.022103 0.052181
v -0.197958 -0.108989 0.102289
v -0.208495 -0.115681 0.113396
v -0.207394 -0.095227 0.101630
v -0.217930 -0.101918 0.112736
v -0.023829 0.031809 0.126309
v -0.014941 0.038501 0.138773
v -0.014394 0.018047 0.126969
v -0.005505 0.024739 0.139433
v -0.089793 -0.028794 0.228191
v -0.080904 -0.022103 0.240655
v -0.099228 -0.015032 0.227531
v -0.090340 -0.008340 0.239995
v 0.012278 0.038122 0.164270
v 0.022815 0.044813 0.153164
v 0.021167 0.044813 0.176735
v 0.031704 0.051505 0.165628
v -0.268959 -0.135376 0.144604
v -0.277848 -0.142068 0.132139
v -0.259524 -0.149139 0.145264
v -0.268412 -0.155830 0.132799
v -0.058836 -0.015411 0.064646
v -0.067725 -0.022103 0.052181
v -0.068272 -0.001649 0.063986
v -0.077161 -0.008340 0.051521
v -0.098681 -0.035486 0.215726
v -0.089793 -0.028794 0.228191
v -0.108117 -0.021723 0.215066
v -0.099228 -0.015032 0.227531
v -0.058836 -0.015411 0.064646
v -0.069373 -0.022103 0.075752
v -0.067725 -0.022103 0.052181
v -0.078262 -0.028794 0.063287
v -0.095385 -0.035486 0.168585
v -0.105921 -0.042178 0.179691
v -0.104273 -0.042178 0.156120
v -0.114810 -0.048869 0.167226
v -0.049948 -0.008720 0.077110
v -0.058836 -0.015411 0.064646
v -0.059383 0.005043 0.076451
v -0.068272 -0.001649 0.063986
v 0.005032 0.031430 0.128327
v -0.005505 0.024739 0.139433
v -0.004404 0.045193 0.127667
v -0.014941 0.038501 0.138773
v -0.060485 -0.015411 0.088217
v -0.069373 -0.022103 0.075752
v -0.049948 -0.008720 0.077110
v -0.058836 -0.015411 0.064646
v -0.061032 0.005043 0.100021
v -0.071568 -0.001649 0.111127
v -0.052143 0.011735 0.112486
v -0.062680 0.005043 0.123592
v -0.070367 -0.015411 0.229549
v -0.059831 -0.008720 0.218443
v -0.079803 -0.001649 0.228889
v -0.069266 0.005043 0.217783
v 0.005032 0.031430 0.128327
v 0.015568 0.038122 0.117221
v 0.013920 0.038122 0.140791
v 0.024457 0.044813 0.129685
v -0.192359 -0.102298 0.161803
v -0.183471 -0.095606 0.174268
v -0.201795 -0.088535 0.161144
v -0.192907 -0.081843 0.173608
v -0.025471 0.031809 0.149787
v -0.014941 0.038501 0.138773
v -0.034366 0.025118 0.137415
v -0.023829 0.031809 0.126309
v 0.003390 0.031430 0.151806
v -0.007147 0.024739 0.162912
v -0.005505 0.024739 0.139433
v -0.016035 0.018047 0.150447
v -0.044356 -0.002028 0.136716
v -0.053244 -0.008720 0.124252
v -0.053791 0.011735 0.136057
v -0.062680 0.005043 0.123592
v -0.042707 -0.002028 0.113146
v -0.051596 -0.008720 0.100681
v -0.052143 0.011735 0.112486
v -0.061032 0.005043 0.100021
v -0.007147 0.024739 0.162912
v 0.003390 0.031430 0.151806
v 0.001742 0.031430 0.175376
v 0.012278 0.038122 0.164270
v -0.068719 -0.015411 0.205978
v -0.058182 -0.008720 0.194872
v -0.078155 -0.001649 0.205318
v -0.067618 0.005043 0.194212
v 0.024457 0.044813 0.129685
v 0.015568 0.038122 0.117221
v 0.015021 0.058576 0.129025
v 0.006133 0.051884 0.116561
v -0.144620 -0.068839 0.176985
v -0.134084 -0.062148 0.165878
v -0.154056 -0.055077 0.176325
v -0.143519 -0.048385 0.165219
v -0.079910 -0.028794 0.086858
v -0.090447 -0.035486 0.097964
v -0.089346 -0.015032 0.086198
v -0.099882 -0.021723 0.097305
v -0.106469 -0.021723 0.191496
v -0.095932 -0.015032 0.180389
v -0.097033 -0.035486 0.192155
v -0.086496 -0.028794 0.181049
v -0.088144 -0.028794 0.204620
v -0.098681 -0.035486 0.215726
v -0.097580 -0.015032 0.203960
v -0.108117 -0.021723 0.215066
v 0.002843 0.051884 0.163610
v 0.013379 0.058576 0.152504
v -0.006046 0.045193 0.151146
v 0.004484 0.051884 0.140132
v -0.069373 -0.022103 0.075752
v -0.079910 -0.028794 0.086858
v -0.078262 -0.028794 0.063287
v -0.088798 -0.035486 0.074394
v -0.090994 -0.015032 0.109769
v -0.101530 -0.021723 0.120875
v -0.082105 -0.008340 0.122234
v -0.092642 -0.015032 0.133340
v -0.120804 -0.035002 0.119528
v -0.110419 -0.028415 0.108411
v -0.111368 -0.048765 0.120187
v -0.100983 -0.042178 0.109071
v -0.080457 -0.008340 0.098663
v -0.069920 -0.001649 0.087557
v -0.089346 -0.015032 0.086198
v -0.078809 -0.008340 0.075092
v -0.090447 -0.035486 0.097964
v -0.081558 -0.028794 0.110429
v -0.099882 -0.021723 0.097305
v -0.090994 -0.015032 0.109769
v -0.173481 -0.068460 0.174967
v -0.164046 -0.082223 0.175626
v -0.162945 -0.061768 0.163860
v -0.153509 -0.075531 0.164520
v -0.058182 -0.008720 0.194872
v -0.067071 -0.015411 0.182407
v -0.047646 -0.002028 0.183766
v -0.056534 -0.008720 0.171301
v -0.256781 -0.128685 0.110019
v -0.246244 -0.121993 0.098913
v -0.247345 -0.142447 0.110679
v -0.236808 -0.135756 0.099573
v -0.153509 -0.075531 0.164520
v -0.164046 -0.082223 0.175626
v -0.162397 -0.082223 0.152056
v -0.172934 -0.088914 0.163162
v -0.160756 -0.082223 0.128577
v -0.171286 -0.088914 0.139591
v -0.169644 -0.088914 0.116112
v -0.180181 -0.095606 0.127219
v -0.065423 -0.015411 0.158837
v -0.074311 -0.022103 0.146372
v -0.054886 -0.008720 0.147731
v -0.063781 -0.015411 0.135358
v -0.043255 0.018426 0.124950
v -0.034366 0.025118 0.137415
v -0.033819 0.004664 0.125610
v -0.024930 0.011355 0.138075
v -0.182370 -0.075152 0.162502
v -0.171833 -0.068460 0.151396
v -0.191258 -0.081843 0.150037
v -0.180722 -0.075152 0.138931
v -0.092095 -0.035486 0.121535
v -0.102631 -0.042178 0.132641
v -0.100983 -0.042178 0.109071
v -0.111368 -0.048765 0.120187
v -0.092642 -0.015032 0.133340
v -0.083747 -0.008340 0.145712
v -0.082105 -0.008340 0.122234
v -0.073217 -0.001649 0.134698
v -0.058182 -0.008720 0.194872
v -0.047646 -0.002028 0.183766
v -0.067618 0.005043 0.194212
v -0.057081 0.011735 0.183106
v -0.134084 -0.062148 0.165878
v -0.125195 -0.055456 0.178343
v -0.143519 -0.048385 0.165219
v -0.134631 -0.041694 0.177683
v -0.247345 -0.142447 0.110679
v -0.257882 -0.149139 0.121785
v -0.256781 -0.128685 0.110019
v -0.267318 -0.135376 0.121125
v -0.059831 -0.008720 0.218443
v -0.068719 -0.015411 0.205978
v -0.069266 0.005043 0.217783
v -0.078155 -0.001649 0.205318
v -0.093737 -0.035486 0.145014
v -0.102631 -0.042178 0.132641
v -0.083206 -0.028794 0.134000
v -0.092095 -0.035486 0.121535
v -0.079910 -0.028794 0.086858
v -0.069373 -0.022103 0.075752
v -0.071021 -0.022103 0.099323
v -0.060485 -0.015411 0.088217
v -0.078262 -0.028794 0.063287
v -0.088798 -0.035486 0.074394
v -0.087697 -0.015032 0.062628
v -0.098234 -0.021723 0.073734
v 0.011731 0.058576 0.176075
v 0.022268 0.065268 0.164969
v 0.002843 0.051884 0.163610
v 0.013379 0.058576 0.152504
v -0.053791 0.011735 0.136057
v -0.044896 0.018426 0.148429
v -0.043255 0.018426 0.124950
v -0.034366 0.025118 0.137415
v -0.248987 -0.142447 0.134158
v -0.257882 -0.149139 0.121785
v -0.238457 -0.135756 0.123144
v -0.247345 -0.142447 0.110679
v -0.246244 -0.121993 0.098913
v -0.256781 -0.128685 0.110019
v -0.237356 -0.115301 0.111378
v -0.247892 -0.121993 0.122484
v -0.095932 -0.015032 0.180389
v -0.087043 -0.008340 0.192854
v -0.085395 -0.008340 0.169283
v -0.076507 -0.001649 0.181748
v -0.095385 -0.035486 0.168585
v -0.104273 -0.042178 0.156120
v -0.084848 -0.028794 0.157478
v -0.093737 -0.035486 0.145014
v -0.064322 0.005043 0.147071
v -0.055433 0.011735 0.159535
v -0.053791 0.011735 0.136057
v -0.044896 0.018426 0.148429
v -0.016583 0.038501 0.162252
v -0.007694 0.045193 0.174716
v -0.006046 0.045193 0.151146
v 0.002843 0.051884 0.163610
v -0.024930 0.011355 0.138075
v -0.035461 0.004664 0.149089
v -0.033819 0.004664 0.125610
v -0.044356 -0.002028 0.136716
v -0.062680 0.005043 0.123592
v -0.073217 -0.001649 0.134698
v -0.053791 0.011735 0.136057
v -0.064322 0.005043 0.147071
v -0.068272 -0.001649 0.063986
v -0.078809 -0.008340 0.075092
v -0.059383 0.005043 0.076451
v -0.069920 -0.001649 0.087557
v -0.070367 -0.015411 0.229549
v -0.079256 -0.022103 0.217084
v -0.059831 -0.008720 0.218443
v -0.068719 -0.015411 0.205978
v -0.241747 -0.135756 0.170193
v -0.231210 -0.129064 0.159087
v -0.251182 -0.121993 0.169533
v -0.240646 -0.115301 0.158427
v -0.007147 0.024739 0.162912
v 0.001742 0.031430 0.175376
v -0.016583 0.038501 0.162252
v -0.007694 0.045193 0.174716
v -0.106469 -0.021723 0.191496
v -0.097580 -0.015032 0.203960
v -0.095932 -0.015032 0.180389
v -0.087043 -0.008340 0.192854
v -0.168543 -0.068460 0.104346
v -0.179080 -0.075152 0.115453
v -0.159654 -0.061768 0.116811
v -0.170191 -0.068460 0.127917
v -0.231210 -0.129064 0.159087
v -0.222321 -0.122372 0.171551
v -0.240646 -0.115301 0.158427
v -0.231757 -0.108610 0.170891
v -0.113010 -0.048765 0.143666
v -0.123547 -0.055456 0.154772
v -0.121905 -0.055456 0.131294
v -0.132435 -0.062148 0.142308
v -0.074311 -0.022103 0.146372
v -0.084848 -0.028794 0.157478
v -0.083206 -0.028794 0.134000
v -0.093737 -0.035486 0.145014
v -0.120804 -0.035002 0.119528
v -0.112067 -0.028415 0.131982
v -0.110419 -0.028415 0.108411
v -0.101530 -0.021723 0.120875
v -0.121905 -0.055456 0.131294
v -0.132435 -0.062148 0.142308
v -0.130794 -0.062148 0.118829
v -0.141330 -0.068839 0.129935
v -0.144620 -0.068839 0.176985
v -0.153509 -0.075531 0.164520
v -0.134084 -0.062148 0.165878
v -0.142972 -0.068839 0.153414
v -0.247892 -0.121993 0.122484
v -0.258423 -0.128685 0.133498
v -0.238997 -0.115301 0.134856
v -0.249534 -0.121993 0.145962
v -0.037109 0.004664 0.172660
v -0.026572 0.011355 0.161553
v -0.046545 0.018426 0.172000
v -0.036008 0.025118 0.160894
v -0.151861 -0.075531 0.140949
v -0.160756 -0.082223 0.128577
v -0.141330 -0.068839 0.129935
v -0.150219 -0.075531 0.117471
v -0.090994 -0.015032 0.109769
v -0.082105 -0.008340 0.122234
v -0.080457 -0.008340 0.098663
v -0.071568 -0.001649 0.111127
v -0.110419 -0.028415 0.108411
v -0.101530 -0.021723 0.120875
v -0.100983 -0.042178 0.109071
v -0.092095 -0.035486 0.121535
v -0.173481 -0.068460 0.174967
v -0.182370 -0.075152 0.162502
v -0.164046 -0.082223 0.175626
v -0.172934 -0.088914 0.163162
v -0.183471 -0.095606 0.174268
v -0.192359 -0.102298 0.161803
v -0.172934 -0.088914 0.163162
v -0.181823 -0.095606 0.150697
v -0.071021 -0.022103 0.099323
v -0.081558 -0.028794 0.110429
v -0.079910 -0.028794 0.086858
v -0.090447 -0.035486 0.097964
v -0.112067 -0.028415 0.131982
v -0.122446 -0.035002 0.143006
v -0.103172 -0.021723 0.144354
v -0.113709 -0.028415 0.155460
v -0.016035 0.018047 0.150447
v -0.026572 0.011355 0.161553
v -0.024930 0.011355 0.138075
v -0.035461 0.004664 0.149089
v -0.098234 -0.021723 0.073734
v -0.089346 -0.015032 0.086198
v -0.087697 -0.015032 0.062628
v -0.078809 -0.008340 0.075092
v -0.095932 -0.015032 0.180389
v -0.085395 -0.008340 0.169283
v -0.104820 -0.021723 0.167925
v -0.094284 -0.015032 0.156819
v -0.152408 -0.055077 0.152754
v -0.143519 -0.048385 0.165219
v -0.141871 -0.048385 0.141648
v -0.132983 -0.041694 0.154112
v -0.181823 -0.095606 0.150697
v -0.192359 -0.102298 0.161803
v -0.190711 -0.102298 0.138233
v -0.201248 -0.108989 0.149339
v -0.103172 -0.021723 0.144354
v -0.113709 -0.028415 0.155460
v -0.094284 -0.015032 0.156819
v -0.104820 -0.021723 0.167925
v -0.069920 -0.001649 0.087557
v -0.080457 -0.008340 0.098663
v -0.061032 0.005043 0.100021
v -0.071568 -0.001649 0.111127
v -0.056534 -0.008720 0.171301
v -0.045997 -0.002028 0.160195
v -0.065970 0.005043 0.170641
v -0.055433 0.011735 0.159535
v -0.149118 -0.055077 0.105705
v -0.139682 -0.068839 0.106365
v -0.159654 -0.061768 0.116811
v -0.150219 -0.075531 0.117471
v -0.074858 -0.001649 0.158177
v -0.085395 -0.008340 0.169283
v -0.065970 0.005043 0.170641
v -0.076507 -0.001649 0.181748
v -0.067071 -0.015411 0.182407
v -0.075959 -0.022103 0.169943
v -0.056534 -0.008720 0.171301
v -0.065423 -0.015411 0.158837
v -0.099228 -0.015032 0.227531
v -0.090340 -0.008340 0.239995
v -0.088692 -0.008340 0.216425
v -0.079803 -0.001649 0.228889
v -0.212332 -0.095227 0.172250
v -0.202896 -0.108989 0.172910
v -0.201795 -0.088535 0.161144
v -0.192359 -0.102298 0.161803
v -0.094284 -0.015032 0.156819
v -0.085395 -0.008340 0.169283
v -0.083747 -0.008340 0.145712
v -0.074858 -0.001649 0.158177
v -0.123547 -0.055456 0.154772
v -0.134084 -0.062148 0.165878
v -0.132435 -0.062148 0.142308
v -0.142972 -0.068839 0.153414
v -0.101530 -0.021723 0.120875
v -0.112067 -0.028415 0.131982
v -0.092642 -0.015032 0.133340
v -0.103172 -0.021723 0.144354
v -0.131341 -0.041694 0.130634
v -0.122446 -0.035002 0.143006
v -0.120804 -0.035002 0.119528
v -0.112067 -0.028415 0.131982
v -0.053244 -0.008720 0.124252
v -0.042707 -0.002028 0.113146
v -0.062680 0.005043 0.123592
v -0.052143 0.011735 0.112486
v -0.025471 0.031809 0.149787
v -0.036008 0.025118 0.160894
v -0.016583 0.038501 0.162252
v -0.027119 0.031809 0.173358
v -0.071568 -0.001649 0.111127
v -0.082105 -0.008340 0.122234
v -0.062680 0.005043 0.123592
v -0.073217 -0.001649 0.134698
v -0.114810 -0.048869 0.167226
v -0.123547 -0.055456 0.154772
v -0.104273 -0.042178 0.156120
v -0.113010 -0.048765 0.143666
v -0.277848 -0.142068 0.132139
v -0.267318 -0.135376 0.121125
v -0.268412 -0.155830 0.132799
v -0.257882 -0.149139 0.121785
v -0.209042 -0.095227 0.125200
v -0.200147 -0.088535 0.137573
v -0.198505 -0.088535 0.114094
v -0.189617 -0.081843 0.126559
v -0.240646 -0.115301 0.158427
v -0.231757 -0.108610 0.170891
v -0.230109 -0.108610 0.147321
v -0.221220 -0.101918 0.159785
v -0.210684 -0.095227 0.148679
v -0.201795 -0.088535 0.161144
v -0.200147 -0.088535 0.137573
v -0.191258 -0.081843 0.150037
v -0.229562 -0.129064 0.135516
v -0.238457 -0.135756 0.123144
v -0.219031 -0.122372 0.124502
v -0.227920 -0.129064 0.112037
v -0.080904 -0.022103 0.240655
v -0.070367 -0.015411 0.229549
v -0.090340 -0.008340 0.239995
v -0.079803 -0.001649 0.228889
v -0.065970 0.005043 0.170641
v -0.076507 -0.001649 0.181748
v -0.057081 0.011735 0.183106
v -0.067618 0.005043 0.194212
v -0.140229 -0.048385 0.118169
v -0.129692 -0.041694 0.107063
v -0.130794 -0.062148 0.118829
v -0.120257 -0.055456 0.107723
v -0.134631 -0.041694 0.177683
v -0.125195 -0.055456 0.178343
v -0.124246 -0.035107 0.166566
v -0.114810 -0.048869 0.167226
v -0.237356 -0.115301 0.111378
v -0.226819 -0.108610 0.100271
v -0.227920 -0.129064 0.112037
v -0.217383 -0.122372 0.100931
v -0.241747 -0.135756 0.170193
v -0.250635 -0.142447 0.157728
v -0.231210 -0.129064 0.159087
v -0.240098 -0.135756 0.146622
v -0.159654 -0.061768 0.116811
v -0.170191 -0.068460 0.127917
v -0.150766 -0.055077 0.129275
v -0.161296 -0.061768 0.140290
v -0.063781 -0.015411 0.135358
v -0.074311 -0.022103 0.146372
v -0.072669 -0.022103 0.122893
v -0.083206 -0.028794 0.134000
v -0.152408 -0.055077 0.152754
v -0.162945 -0.061768 0.163860
v -0.143519 -0.048385 0.165219
v -0.154056 -0.055077 0.176325
v -0.095385 -0.035486 0.168585
v -0.084848 -0.028794 0.157478
v -0.086496 -0.028794 0.181049
v -0.075959 -0.022103 0.169943
v -0.083206 -0.028794 0.134000
v -0.092095 -0.035486 0.121535
v -0.072669 -0.022103 0.122893
v -0.081558 -0.028794 0.110429
v -0.132983 -0.041694 0.154112
v -0.143519 -0.048385 0.165219
v -0.124246 -0.035107 0.166566
v -0.134631 -0.041694 0.177683
v -0.063781 -0.015411 0.135358
v -0.072669 -0.022103 0.122893
v -0.053244 -0.008720 0.124252
v -0.062133 -0.015411 0.111787
v -0.150219 -0.075531 0.117471
v -0.159107 -0.082223 0.105006
v -0.159654 -0.061768 0.116811
v -0.168543 -0.068460 0.104346
v -0.198505 -0.088535 0.114094
v -0.189069 -0.102298 0.114754
v -0.207394 -0.095227 0.101630
v -0.197958 -0.108989 0.102289
v -0.079256 -0.022103 0.217084
v -0.089793 -0.028794 0.228191
v -0.088144 -0.028794 0.204620
v -0.098681 -0.035486 0.215726
v -0.064322 0.005043 0.147071
v -0.074858 -0.001649 0.158177
v -0.055433 0.011735 0.159535
v -0.065970 0.005043 0.170641
v -0.055433 0.011735 0.159535
v -0.045997 -0.002028 0.160195
v -0.046545 0.018426 0.172000
v -0.037109 0.004664 0.172660
v -0.026572 0.011355 0.161553
v -0.017684 0.018047 0.174018
v -0.036008 0.025118 0.160894
v -0.027119 0.031809 0.173358
v -0.077608 -0.022103 0.193514
v -0.088144 -0.028794 0.204620
v -0.086496 -0.028794 0.181049
v -0.097033 -0.035486 0.192155
v -0.054886 -0.008720 0.147731
v -0.063781 -0.015411 0.135358
v -0.044356 -0.002028 0.136716
v -0.053244 -0.008720 0.124252
v -0.055433 0.011735 0.159535
v -0.046545 0.018426 0.172000
v -0.044896 0.018426 0.148429
v -0.036008 0.025118 0.160894
v -0.103172 -0.021723 0.144354
v -0.094284 -0.015032 0.156819
v -0.092642 -0.015032 0.133340
v -0.083747 -0.008340 0.145712
v 0.042240 0.058197 0.154522
v 0.033345 0.051505 0.142150
v 0.032805 0.071959 0.153862
v 0.023910 0.065268 0.141490
v -0.095385 -0.035486 0.168585
v -0.086496 -0.028794 0.181049
v -0.104820 -0.021723 0.167925
v -0.095932 -0.015032 0.180389
v -0.099882 -0.021723 0.097305
v -0.090994 -0.015032 0.109769
v -0.089346 -0.015032 0.086198
v -0.080457 -0.008340 0.098663
v -0.078155 -0.001649 0.205318
v -0.088692 -0.008340 0.216425
v -0.069266 0.005043 0.217783
v -0.079803 -0.001649 0.228889
v -0.101530 -0.021723 0.120875
v -0.090994 -0.015032 0.109769
v -0.092095 -0.035486 0.121535
v -0.081558 -0.028794 0.110429
v -0.104273 -0.042178 0.156120
v -0.113010 -0.048765 0.143666
v -0.093737 -0.035486 0.145014
v -0.102631 -0.042178 0.132641
v -0.161296 -0.061768 0.140290
v -0.171833 -0.068460 0.151396
v -0.152408 -0.055077 0.152754
v -0.162945 -0.061768 0.163860
v -0.124246 -0.035107 0.166566
v -0.115357 -0.028415 0.179031
v -0.113709 -0.028415 0.155460
v -0.104820 -0.021723 0.167925
v -0.237356 -0.115301 0.111378
v -0.247892 -0.121993 0.122484
v -0.228467 -0.108610 0.123842
v -0.238997 -0.115301 0.134856
v -0.056534 -0.008720 0.171301
v -0.065423 -0.015411 0.158837
v -0.045997 -0.002028 0.160195
v -0.054886 -0.008720 0.147731
v -0.142972 -0.068839 0.153414
v -0.151861 -0.075531 0.140949
v -0.132435 -0.062148 0.142308
v -0.141330 -0.068839 0.129935
v -0.221220 -0.101918 0.159785
v -0.212332 -0.095227 0.172250
v -0.210684 -0.095227 0.148679
v -0.201795 -0.088535 0.161144
v -0.141871 -0.048385 0.141648
v -0.132983 -0.041694 0.154112
v -0.131341 -0.041694 0.130634
v -0.122446 -0.035002 0.143006
v -0.065423 -0.015411 0.158837
v -0.075959 -0.022103 0.169943
v -0.074311 -0.022103 0.146372
v -0.084848 -0.028794 0.157478
v 0.001742 0.031430 0.175376
v 0.010630 0.038122 0.187841
v -0.007694 0.045193 0.174716
v 0.001194 0.051884 0.187181
v -0.102631 -0.042178 0.132641
v -0.113010 -0.048765 0.143666
v -0.111368 -0.048765 0.120187
v -0.121905 -0.055456 0.131294
v -0.054886 -0.008720 0.147731
v -0.044356 -0.002028 0.136716
v -0.045997 -0.002028 0.160195
v -0.035461 0.004664 0.149089
v -0.122446 -0.035002 0.143006
v -0.132983 -0.041694 0.154112
v -0.113709 -0.028415 0.155460
v -0.124246 -0.035107 0.166566
v -0.106469 -0.021723 0.191496
v -0.097033 -0.035486 0.192155
v -0.097580 -0.015032 0.203960
v -0.088144 -0.028794 0.204620
v -0.268959 -0.135376 0.144604
v -0.259524 -0.149139 0.145264
v -0.260071 -0.128685 0.157069
v -0.250635 -0.142447 0.157728
v -0.189069 -0.102298 0.114754
v -0.178533 -0.095606 0.103648
v -0.180181 -0.095606 0.127219
v -0.169644 -0.088914 0.116112
v -0.108117 -0.021723 0.215066
v -0.099228 -0.015032 0.227531
v -0.097580 -0.015032 0.203960
v -0.088692 -0.008340 0.216425
v -0.089346 -0.015032 0.086198
v -0.098234 -0.021723 0.073734
v -0.079910 -0.028794 0.086858
v -0.088798 -0.035486 0.074394
v -0.007694 0.045193 0.174716
v 0.001194 0.051884 0.187181
v 0.002843 0.051884 0.163610
v 0.011731 0.058576 0.176075
v -0.070367 -0.015411 0.229549
v -0.080904 -0.022103 0.240655
v -0.079256 -0.022103 0.217084
v -0.089793 -0.028794 0.228191
v -0.076507 -0.001649 0.181748
v -0.087043 -0.008340 0.192854
v -0.067618 0.005043 0.194212
v -0.078155 -0.001649 0.205318
v -0.006046 0.045193 0.151146
v 0.004484 0.051884 0.140132
v -0.014941 0.038501 0.138773
v -0.004404 0.045193 0.127667
v -0.017684 0.018047 0.174018
v -0.026572 0.011355 0.161553
v -0.007147 0.024739 0.162912
v -0.016035 0.018047 0.150447
v -0.153509 -0.075531 0.164520
v -0.162397 -0.082223 0.152056
v -0.142972 -0.068839 0.153414
v -0.151861 -0.075531 0.140949
v -0.191258 -0.081843 0.150037
v -0.201795 -0.088535 0.161144
v -0.182370 -0.075152 0.162502
v -0.192907 -0.081843 0.173608
v -0.134084 -0.062148 0.165878
v -0.123547 -0.055456 0.154772
v -0.125195 -0.055456 0.178343
v -0.114810 -0.048869 0.167226
v -0.189617 -0.081843 0.126559
v -0.180722 -0.075152 0.138931
v -0.179080 -0.075152 0.115453
v -0.170191 -0.068460 0.127917
v 0.013379 0.058576 0.152504
v 0.023910 0.065268 0.141490
v 0.004484 0.051884 0.140132
v 0.015021 0.058576 0.129025
v -0.114810 -0.048869 0.167226
v -0.105921 -0.042178 0.179691
v -0.124246 -0.035107 0.166566
v -0.115357 -0.028415 0.179031
v -0.068719 -0.015411 0.205978
v -0.079256 -0.022103 0.217084
v -0.077608 -0.022103 0.193514
v -0.088144 -0.028794 0.204620
v -0.208495 -0.115681 0.113396
v -0.219031 -0.122372 0.124502
v -0.217383 -0.122372 0.100931
v -0.227920 -0.129064 0.112037
v -0.111368 -0.048765 0.120187
v -0.120257 -0.055456 0.107723
v -0.120804 -0.035002 0.119528
v -0.129692 -0.041694 0.107063
v -0.222321 -0.122372 0.171551
v -0.211785 -0.115681 0.160445
v -0.231757 -0.108610 0.170891
v -0.221220 -0.101918 0.159785
v -0.258423 -0.128685 0.133498
v -0.268959 -0.135376 0.144604
v -0.249534 -0.121993 0.145962
v -0.260071 -0.128685 0.157069
v -0.053244 -0.008720 0.124252
v -0.062133 -0.015411 0.111787
v -0.042707 -0.002028 0.113146
v -0.051596 -0.008720 0.100681
v -0.159107 -0.082223 0.105006
v -0.169644 -0.088914 0.116112
v -0.168543 -0.068460 0.104346
v -0.179080 -0.075152 0.115453
v 0.012278 0.038122 0.164270
v 0.003390 0.031430 0.151806
v 0.022815 0.044813 0.153164
v 0.013920 0.038122 0.140791
v -0.228467 -0.108610 0.123842
v -0.219572 -0.101918 0.136215
v -0.217930 -0.101918 0.112736
v -0.209042 -0.095227 0.125200
v -0.230109 -0.108610 0.147321
v -0.221220 -0.101918 0.159785
v -0.219572 -0.101918 0.136215
v -0.210684 -0.095227 0.148679
v -0.180181 -0.095606 0.127219
v -0.190711 -0.102298 0.138233
v -0.189069 -0.102298 0.114754
v -0.199606 -0.108989 0.125860
v -0.211785 -0.115681 0.160445
v -0.222321 -0.122372 0.171551
v -0.220673 -0.122372 0.147981
v -0.231210 -0.129064 0.159087
v -0.240098 -0.135756 0.146622
v -0.248987 -0.142447 0.134158
v -0.229562 -0.129064 0.135516
v -0.238457 -0.135756 0.123144
v -0.189617 -0.081843 0.126559
v -0.200147 -0.088535 0.137573
v -0.180722 -0.075152 0.138931
v -0.191258 -0.081843 0.150037
v 0.021167 0.044813 0.176735
v 0.031704 0.051505 0.165628
v 0.011731 0.058576 0.176075
v 0.022268 0.065268 0.164969
v -0.043255 0.018426 0.124950
v -0.033819 0.004664 0.125610
v -0.053791 0.011735 0.136057
v -0.044356 -0.002028 0.136716
v -0.068719 -0.015411 0.205978
v -0.077608 -0.022103 0.193514
v -0.058182 -0.008720 0.194872
v -0.067071 -0.015411 0.182407
v -0.178533 -0.095606 0.103648
v -0.189069 -0.102298 0.114754
v -0.187968 -0.081843 0.102988
v -0.198505 -0.088535 0.114094
v -0.208495 -0.115681 0.113396
v -0.217383 -0.122372 0.100931
v -0.217930 -0.101918 0.112736
v -0.226819 -0.108610 0.100271
v -0.181823 -0.095606 0.150697
v -0.171286 -0.088914 0.139591
v -0.172934 -0.088914 0.163162
v -0.162397 -0.082223 0.152056
v 0.013920 0.038122 0.140791
v 0.003390 0.031430 0.151806
v 0.005032 0.031430 0.128327
v -0.005505 0.024739 0.139433
v -0.183471 -0.095606 0.174268
v -0.172934 -0.088914 0.163162
v -0.192907 -0.081843 0.173608
v -0.182370 -0.075152 0.162502
v -0.062133 -0.015411 0.111787
v -0.072669 -0.022103 0.122893
v -0.071021 -0.022103 0.099323
v -0.081558 -0.028794 0.110429
v -0.237356 -0.115301 0.111378
v -0.228467 -0.108610 0.123842
v -0.226819 -0.108610 0.100271
v -0.217930 -0.101918 0.112736
v -0.249534 -0.121993 0.145962
v -0.260071 -0.128685 0.157069
v -0.240646 -0.115301 0.158427
v -0.251182 -0.121993 0.169533
v -0.217930 -0.101918 0.112736
v -0.209042 -0.095227 0.125200
v -0.207394 -0.095227 0.101630
v -0.198505 -0.088535 0.114094
v -0.277848 -0.142068 0.132139
v -0.268959 -0.135376 0.144604
v -0.267318 -0.135376 0.121125
v -0.258423 -0.128685 0.133498
v -0.087697 -0.015032 0.062628
v -0.078809 -0.008340 0.075092
v -0.077161 -0.008340 0.051521
v -0.068272 -0.001649 0.063986
v -0.198505 -0.088535 0.114094
v -0.189617 -0.081843 0.126559
v -0.187968 -0.081843 0.102988
v -0.179080 -0.075152 0.115453
v -0.149118 -0.055077 0.105705
v -0.140229 -0.048385 0.118169
v -0.139682 -0.068839 0.106365
v -0.130794 -0.062148 0.118829
v -0.062133 -0.015411 0.111787
v -0.071021 -0.022103 0.099323
v -0.051596 -0.008720 0.100681
v -0.060485 -0.015411 0.088217
v -0.111368 -0.048765 0.120187
v -0.121905 -0.055456 0.131294
v -0.120257 -0.055456 0.107723
v -0.130794 -0.062148 0.118829
v -0.026572 0.011355 0.161553
v -0.037109 0.004664 0.172660
v -0.035461 0.004664 0.149089
v -0.045997 -0.002028 0.160195
v -0.173481 -0.068460 0.174967
v -0.162945 -0.061768 0.163860
v -0.182370 -0.075152 0.162502
v -0.171833 -0.068460 0.151396
v -0.187968 -0.081843 0.102988
v -0.179080 -0.075152 0.115453
v -0.178533 -0.095606 0.103648
v -0.169644 -0.088914 0.116112
v -0.149118 -0.055077 0.105705
v -0.159654 -0.061768 0.116811
v -0.140229 -0.048385 0.118169
v -0.150766 -0.055077 0.129275
v -0.228467 -0.108610 0.123842
v -0.238997 -0.115301 0.134856
v -0.219572 -0.101918 0.136215
v -0.230109 -0.108610 0.147321
v -0.199606 -0.108989 0.125860
v -0.210136 -0.115681 0.136874
v -0.208495 -0.115681 0.113396
v -0.219031 -0.122372 0.124502
v -0.238997 -0.115301 0.134856
v -0.249534 -0.121993 0.145962
v -0.230109 -0.108610 0.147321
v -0.240646 -0.115301 0.158427
v -0.220673 -0.122372 0.147981
v -0.229562 -0.129064 0.135516
v -0.210136 -0.115681 0.136874
v -0.219031 -0.122372 0.124502
v -0.201248 -0.108989 0.149339
v -0.211785 -0.115681 0.160445
v -0.210136 -0.115681 0.136874
v -0.220673 -0.122372 0.147981
v -0.192359 -0.102298 0.161803
v -0.202896 -0.108989 0.172910
v -0.201248 -0.108989 0.149339
v -0.211785 -0.115681 0.160445
v -0.248987 -0.142447 0.134158
v -0.259524 -0.149139 0.145264
v -0.257882 -0.149139 0.121785
v -0.268412 -0.155830 0.132799
v -0.047646 -0.002028 0.183766
v -0.056534 -0.008720 0.171301
v -0.057081 0.011735 0.183106
v -0.065970 0.005043 0.170641
v -0.250635 -0.142447 0.157728
v -0.241747 -0.135756 0.170193
v -0.260071 -0.128685 0.157069
v -0.251182 -0.121993 0.169533
v -0.141330 -0.068839 0.129935
v -0.150219 -0.075531 0.117471
v -0.130794 -0.062148 0.118829
v -0.139682 -0.068839 0.106365
v -0.238457 -0.135756 0.123144
v -0.247345 -0.142447 0.110679
v -0.227920 -0.129064 0.112037
v -0.236808 -0.135756 0.099573
v -0.044896 0.018426 0.148429
v -0.036008 0.025118 0.160894
v -0.034366 0.025118 0.137415
v -0.025471 0.031809 0.149787
v -0.250635 -0.142447 0.157728
v -0.259524 -0.149139 0.145264
v -0.240098 -0.135756 0.146622
v -0.248987 -0.142447 0.134158
v -0.073217 -0.001649 0.134698
v -0.083747 -0.008340 0.145712
v -0.064322 0.005043 0.147071
v -0.074858 -0.001649 0.158177
v -0.181823 -0.095606 0.150697
v -0.190711 -0.102298 0.138233
v -0.171286 -0.088914 0.139591
v -0.180181 -0.095606 0.127219
v -0.256781 -0.128685 0.110019
v -0.267318 -0.135376 0.121125
v -0.247892 -0.121993 0.122484
v -0.258423 -0.128685 0.133498
v -0.150766 -0.055077 0.129275
v -0.161296 -0.061768 0.140290
v -0.141871 -0.048385 0.141648
v -0.152408 -0.055077 0.152754
v -0.189069 -0.102298 0.114754
v -0.199606 -0.108989 0.125860
v -0.197958 -0.108989 0.102289
v -0.208495 -0.115681 0.113396
v -0.153509 -0.075531 0.164520
v -0.144620 -0.068839 0.176985
v -0.162945 -0.061768 0.163860
v -0.154056 -0.055077 0.176325
v 0.022268 0.065268 0.164969
v 0.032805 0.071959 0.153862
v 0.013379 0.058576 0.152504
v 0.023910 0.065268 0.141490
v -0.160756 -0.082223 0.128577
v -0.169644 -0.088914 0.116112
v -0.150219 -0.075531 0.117471
v -0.159107 -0.082223 0.105006
v -0.140229 -0.048385 0.118169
v -0.131341 -0.041694 0.130634
v -0.129692 -0.041694 0.107063
v -0.120804 -0.035002 0.119528
v 0.031704 0.051505 0.165628
v 0.042240 0.058197 0.154522
v 0.022268 0.065268 0.164969
v 0.032805 0.071959 0.153862
v 0.033345 0.051505 0.142150
v 0.022815 0.044813 0.153164
v 0.024457 0.044813 0.129685
v 0.013920 0.038122 0.140791
v -0.219572 -0.101918 0.136215
v -0.210684 -0.095227 0.148679
v -0.209042 -0.095227 0.125200
v -0.200147 -0.088535 0.137573
v -0.190711 -0.102298 0.138233
v -0.201248 -0.108989 0.149339
v -0.199606 -0.108989 0.125860
v -0.210136 -0.115681 0.136874
v -0.060485 -0.015411 0.088217
v -0.049948 -0.008720 0.077110
v -0.069920 -0.001649 0.087557
v -0.059383 0.005043 0.076451
v -0.097580 -0.015032 0.203960
v -0.088692 -0.008340 0.216425
v -0.087043 -0.008340 0.192854
v -0.078155 -0.001649 0.205318
v -0.150766 -0.055077 0.129275
v -0.141871 -0.048385 0.141648
v -0.140229 -0.048385 0.118169
v -0.131341 -0.041694 0.130634
v 0.001742 0.031430 0.175376
v 0.012278 0.038122 0.164270
v 0.010630 0.038122 0.187841
v 0.021167 0.044813 0.176735
v 0.001194 0.051884 0.187181
v 0.010630 0.038122 0.187841
v 0.011731 0.058576 0.176075
v 0.021167 0.044813 0.176735
v -0.231210 -0.129064 0.159087
v -0.240098 -0.135756 0.146622
v -0.220673 -0.122372 0.147981
v -0.229562 -0.129064 0.135516
v -0.067071 -0.015411 0.182407
v -0.077608 -0.022103 0.193514
v -0.075959 -0.022103 0.169943
v -0.086496 -0.028794 0.181049
v -0.051596 -0.008720 0.100681
v -0.060485 -0.015411 0.088217
v -0.061032 0.005043 0.100021
v -0.069920 -0.001649 0.087557
vn 0.5334 0.3970 0.7469
vn -0.5313 -0.4001 -0.7468
vn -0.5313 -0.4000 -0.7468
vn 0.5632 -0.8254 0.0394
vn -0.6301 -0.4001 0.6656
vn -0.6300 -0.4000 0.6656
vn -0.5632 0.8254 -0.0394
vn 0.5292 0.4032 0.7466
vn 0.6301 0.4001 -0.6656
vn 0.6300 0.4000 -0.6656
vn 0.5668 -0.8229 0.0396
vn -0.6301 -0.4001 0.6655
vn -0.5668 0.8229 -0.0396
vn 0.6301 0.4001 -0.6655
vt 0.438480 0.688468
vt 0.438480 0.749012
vt 0.499024 0.688468
vt 0.499024 0.749012
vt 0.001001 0.001001
vt 0.001001 0.061545
vt 0.061545 0.001001
vt 0.061545 0.061545
vt 0.813461 0.250989
vt 0.813461 0.311533
vt 0.874005 0.250989
vt 0.874005 0.311533
vt 0.813461 0.875958
vt 0.813461 0.936502
vt 0.874005 0.875958
vt 0.874005 0.936502
vt 0.249036 0.313486
vt 0.188492 0.313486
vt 0.249036 0.374030
vt 0.188492 0.374030
vt 0.374030 0.186539
vt 0.374030 0.125995
vt 0.313486 0.186539
vt 0.313486 0.125995
vt 0.438480 0.313486
vt 0.438480 0.374030
vt 0.499024 0.313486
vt 0.499024 0.374030
vt 0.188492 0.813461
vt 0.188492 0.874005
vt 0.249036 0.813461
vt 0.249036 0.874005
vt 0.001001 0.125995
vt 0.001001 0.186539
vt 0.061545 0.125995
vt 0.061545 0.186539
vt 0.063498 0.001001
vt 0.063498 0.061545
vt 0.124042 0.001001
vt 0.124042 0.061545
vt 0.313486 0.063498
vt 0.313486 0.124042
vt 0.374030 0.063498
vt 0.374030 0.124042
vt 0.188492 0.001001
vt 0.188492 0.061545
vt 0.249036 0.001001
vt 0.249036 0.061545
vt 0.500977 0.875958
vt 0.500977 0.936502
vt 0.561521 0.875958
vt 0.561521 0.936502
vt 0.124042 0.311533
vt 0.124042 0.250989
vt 0.063498 0.311533
vt 0.063498 0.250989
vt 0.438480 0.813461
vt 0.438480 0.874005
vt 0.499024 0.813461
vt 0.499024 0.874005
vt 0.124042 0.374030
vt 0.124042 0.313486
vt 0.063498 0.374030
vt 0.063498 0.313486
vt 0.688468 0.750965
vt 0.688468 0.811508
vt 0.749012 0.750965
vt 0.749012 0.811508
vt 0.250989 0.063498
vt 0.250989 0.124042
vt 0.311533 0.063498
vt 0.311533 0.124042
vt 0.998999 0.436527
vt 0.998999 0.375983
vt 0.938455 0.436527
vt 0.938455 0.375983
vt 0.125995 0.250989
vt 0.125995 0.311533
vt 0.186539 0.250989
vt 0.186539 0.311533
vt 0.563474 0.750965
vt 0.563474 0.811508
vt 0.624018 0.750965
vt 0.624018 0.811508
vt 0.311533 0.249036
vt 0.311533 0.188492
vt 0.250989 0.249036
vt 0.250989 0.188492
vt 0.749012 0.561521
vt 0.749012 0.500977
vt 0.688468 0.561521
vt 0.688468 0.500977
vt 0.250989 0.250989
vt 0.250989 0.311533
vt 0.311533 0.250989
vt 0.311533 0.311533
vt 0.063498 0.188492
vt 0.063498 0.249036
vt 0.124042 0.188492
vt 0.124042 0.249036
vt 0.061545 0.313486
vt 0.001001 0.313486
vt 0.061545 0.374030
vt 0.001001 0.374030
vt 0.499024 0.124042
vt 0.499024 0.063498
vt 0.438480 0.124042
vt 0.438480 0.063498
vt 0.001001 0.750965
vt 0.001001 0.811508
vt 0.061545 0.750965
vt 0.061545 0.811508
vt 0.063498 0.063498
vt 0.063498 0.124042
vt 0.124042 0.063498
vt 0.124042 0.124042
vt 0.875958 0.375983
vt 0.875958 0.436527
vt 0.936502 0.375983
vt 0.936502 0.436527
vt 0.125995 0.313486
vt 0.125995 0.374030
vt 0.186539 0.313486
vt 0.186539 0.374030
vt 0.374030 0.249036
vt 0.374030 0.188492
vt 0.313486 0.249036
vt 0.313486 0.188492
vt 0.188492 0.500977
vt 0.188492 0.561521
vt 0.249036 0.500977
vt 0.249036 0.561521
vt 0.001001 0.438480
vt 0.001001 0.499024
vt 0.061545 0.438480
vt 0.061545 0.499024
vt 0.313486 0.313486
vt 0.313486 0.374030
vt 0.374030 0.313486
vt 0.374030 0.374030
vt 0.001001 0.688468
vt 0.001001 0.749012
vt 0.061545 0.688468
vt 0.061545 0.749012
vt 0.001001 0.063498
vt 0.001001 0.124042
vt 0.061545 0.063498
vt 0.061545 0.124042
vt 0.375983 0.813461
vt 0.375983 0.874005
vt 0.436527 0.813461
vt 0.436527 0.874005
vt 0.438480 0.438480
vt 0.438480 0.499024
vt 0.499024 0.438480
vt 0.499024 0.499024
vt 0.561521 0.749012
vt 0.561521 0.688468
vt 0.500977 0.749012
vt 0.500977 0.688468
vt 0.750965 0.563474
vt 0.750965 0.624018
vt 0.811508 0.563474
vt 0.811508 0.624018
vt 0.188492 0.125995
vt 0.188492 0.186539
vt 0.249036 0.125995
vt 0.249036 0.186539
vt 0.249036 0.436527
vt 0.249036 0.375983
vt 0.188492 0.436527
vt 0.188492 0.375983
vt 0.624018 0.061545
vt 0.624018 0.001001
vt 0.563474 0.061545
vt 0.563474 0.001001
vt 0.311533 0.624018
vt 0.311533 0.563474
vt 0.250989 0.624018
vt 0.250989 0.563474
vt 0.375983 0.250989
vt 0.375983 0.311533
vt 0.436527 0.250989
vt 0.436527 0.311533
vt 0.500977 0.001001
vt 0.500977 0.061545
vt 0.561521 0.001001
vt 0.561521 0.061545
vt 0.874005 0.813461
vt 0.813461 0.813461
vt 0.874005 0.874005
vt 0.813461 0.874005
vt 0.686515 0.125995
vt 0.625971 0.125995
vt 0.686515 0.186539
vt 0.625971 0.186539
vt 0.936502 0.561521
vt 0.936502 0.500977
vt 0.875958 0.561521
vt 0.875958 0.500977
vt 0.061545 0.936502
vt 0.061545 0.875958
vt 0.001001 0.936502
vt 0.001001 0.875958
vt 0.874005 0.249036
vt 0.874005 0.188492
vt 0.813461 0.249036
vt 0.813461 0.188492
vt 0.624018 0.125995
vt 0.563474 0.125995
vt 0.624018 0.186539
vt 0.563474 0.186539
vt 0.186539 0.499024
vt 0.186539 0.438480
vt 0.125995 0.499024
vt 0.125995 0.438480
vt 0.813461 0.688468
vt 0.813461 0.749012
vt 0.874005 0.688468
vt 0.874005 0.749012
vt 0.436527 0.624018
vt 0.436527 0.563474
vt 0.375983 0.624018
vt 0.375983 0.563474
vt 0.624018 0.063498
vt 0.563474 0.063498
vt 0.624018 0.124042
vt 0.563474 0.124042
vt 0.625971 0.063498
vt 0.625971 0.124042
vt 0.686515 0.063498
vt 0.686515 0.124042
vt 0.438480 0.750965
vt 0.438480 0.811508
vt 0.499024 0.750965
vt 0.499024 0.811508
vt 0.001001 0.938455
vt 0.001001 0.998999
vt 0.061545 0.938455
vt 0.061545 0.998999
vt 0.750965 0.001001
vt 0.750965 0.061545
vt 0.811508 0.001001
vt 0.811508 0.061545
vt 0.624018 0.438480
vt 0.563474 0.438480
vt 0.624018 0.499024
vt 0.563474 0.499024
vt 0.250989 0.375983
vt 0.250989 0.436527
vt 0.311533 0.375983
vt 0.311533 0.436527
vt 0.125995 0.375983
vt 0.125995 0.436527
vt 0.186539 0.375983
vt 0.186539 0.436527
vt 0.250989 0.001001
vt 0.250989 0.061545
vt 0.311533 0.001001
vt 0.311533 0.061545
vt 0.249036 0.438480
vt 0.188492 0.438480
vt 0.249036 0.499024
vt 0.188492 0.499024
vt 0.124042 0.938455
vt 0.063498 0.938455
vt 0.124042 0.998999
vt 0.063498 0.998999
vt 0.624018 0.936502
vt 0.624018 0.875958
vt 0.563474 0.936502
vt 0.563474 0.875958
vt 0.624018 0.625971
vt 0.563474 0.625971
vt 0.624018 0.686515
vt 0.563474 0.686515
vt 0.686515 0.438480
vt 0.625971 0.438480
vt 0.686515 0.499024
vt 0.625971 0.499024
vt 0.561521 0.313486
vt 0.500977 0.313486
vt 0.561521 0.374030
vt 0.500977 0.374030
vt 0.374030 0.250989
vt 0.313486 0.250989
vt 0.374030 0.311533
vt 0.313486 0.311533
vt 0.499024 0.249036
vt 0.499024 0.188492
vt 0.438480 0.249036
vt 0.438480 0.188492
vt 0.311533 0.561521
vt 0.311533 0.500977
vt 0.250989 0.561521
vt 0.250989 0.500977
vt 0.374030 0.061545
vt 0.374030 0.001001
vt 0.313486 0.061545
vt 0.313486 0.001001
vt 0.124042 0.750965
vt 0.063498 0.750965
vt 0.124042 0.811508
vt 0.063498 0.811508
vt 0.625971 0.938455
vt 0.625971 0.998999
vt 0.686515 0.938455
vt 0.686515 0.998999
vt 0.250989 0.313486
vt 0.250989 0.374030
vt 0.311533 0.313486
vt 0.311533 0.374030
vt 0.624018 0.688468
vt 0.563474 0.688468
vt 0.624018 0.749012
vt 0.563474 0.749012
vt 0.811508 0.249036
vt 0.811508 0.188492
vt 0.750965 0.249036
vt 0.750965 0.188492
vt 0.250989 0.938455
vt 0.250989 0.998999
vt 0.311533 0.938455
vt 0.311533 0.998999
vt 0.749012 0.374030
vt 0.749012 0.313486
vt 0.688468 0.374030
vt 0.688468 0.313486
vt 0.624018 0.561521
vt 0.624018 0.500977
vt 0.563474 0.561521
vt 0.563474 0.500977
vt 0.374030 0.563474
vt 0.313486 0.563474
vt 0.374030 0.624018
vt 0.313486 0.624018
vt 0.749012 0.311533
vt 0.749012 0.250989
vt 0.688468 0.311533
vt 0.688468 0.250989
vt 0.874005 0.438480
vt 0.813461 0.438480
vt 0.874005 0.499024
vt 0.813461 0.499024
vt 0.186539 0.998999
vt 0.186539 0.938455
vt 0.125995 0.998999
vt 0.125995 0.938455
vt 0.375983 0.500977
vt 0.375983 0.561521
vt 0.436527 0.500977
vt 0.436527 0.561521
vt 0.811508 0.250989
vt 0.750965 0.250989
vt 0.811508 0.311533
vt 0.750965 0.311533
vt 0.124042 0.500977
vt 0.063498 0.500977
vt 0.124042 0.561521
vt 0.063498 0.561521
vt 0.624018 0.374030
vt 0.624018 0.313486
vt 0.563474 0.374030
vt 0.563474 0.313486
vt 0.874005 0.811508
vt 0.874005 0.750965
vt 0.813461 0.811508
vt 0.813461 0.750965
vt 0.499024 0.875958
vt 0.438480 0.875958
vt 0.499024 0.936502
vt 0.438480 0.936502
vt 0.561521 0.124042
vt 0.561521 0.063498
vt 0.500977 0.124042
vt 0.500977 0.063498
vt 0.436527 0.686515
vt 0.436527 0.625971
vt 0.375983 0.686515
vt 0.375983 0.625971
vt 0.311533 0.499024
vt 0.311533 0.438480
vt 0.250989 0.499024
vt 0.250989 0.438480
vt 0.436527 0.188492
vt 0.375983 0.188492
vt 0.436527 0.249036
vt 0.375983 0.249036
vt 0.500977 0.625971
vt 0.500977 0.686515
vt 0.561521 0.625971
vt 0.561521 0.686515
vt 0.811508 0.375983
vt 0.750965 0.375983
vt 0.811508 0.436527
vt 0.750965 0.436527
vt 0.374030 0.936502
vt 0.374030 0.875958
vt 0.313486 0.936502
vt 0.313486 0.875958
vt 0.499024 0.686515
vt 0.499024 0.625971
vt 0.438480 0.686515
vt 0.438480 0.625971
vt 0.374030 0.436527
vt 0.374030 0.375983
vt 0.313486 0.436527
vt 0.313486 0.375983
vt 0.188492 0.563474
vt 0.188492 0.624018
vt 0.249036 0.563474
vt 0.249036 0.624018
vt 0.749012 0.063498
vt 0.688468 0.063498
vt 0.749012 0.124042
vt 0.688468 0.124042
vt 0.061545 0.686515
vt 0.061545 0.625971
vt 0.001001 0.686515
vt 0.001001 0.625971
vt 0.686515 0.001001
vt 0.625971 0.001001
vt 0.686515 0.061545
vt 0.625971 0.061545
vt 0.811508 0.750965
vt 0.750965 0.750965
vt 0.811508 0.811508
vt 0.750965 0.811508
vt 0.936502 0.813461
vt 0.875958 0.813461
vt 0.936502 0.874005
vt 0.875958 0.874005
vt 0.561521 0.563474
vt 0.500977 0.563474
vt 0.561521 0.624018
vt 0.500977 0.624018
vt 0.436527 0.811508
vt 0.436527 0.750965
vt 0.375983 0.811508
vt 0.375983 0.750965
vt 0.624018 0.436527
vt 0.624018 0.375983
vt 0.563474 0.436527
vt 0.563474 0.375983
vt 0.686515 0.313486
vt 0.625971 0.313486
vt 0.686515 0.374030
vt 0.625971 0.374030
vt 0.438480 0.001001
vt 0.438480 0.061545
vt 0.499024 0.001001
vt 0.499024 0.061545
vt 0.436527 0.499024
vt 0.436527 0.438480
vt 0.375983 0.499024
vt 0.375983 0.438480
vt 0.186539 0.561521
vt 0.186539 0.500977
vt 0.125995 0.561521
vt 0.125995 0.500977
vt 0.749012 0.375983
vt 0.688468 0.375983
vt 0.749012 0.436527
vt 0.688468 0.436527
vt 0.436527 0.998999
vt 0.436527 0.938455
vt 0.375983 0.998999
vt 0.375983 0.938455
vt 0.874005 0.563474
vt 0.813461 0.563474
vt 0.874005 0.624018
vt 0.813461 0.624018
vt 0.998999 0.313486
vt 0.938455 0.313486
vt 0.998999 0.374030
vt 0.938455 0.374030
vt 0.936502 0.313486
vt 0.875958 0.313486
vt 0.936502 0.374030
vt 0.875958 0.374030
vt 0.936502 0.625971
vt 0.875958 0.625971
vt 0.936502 0.686515
vt 0.875958 0.686515
vt 0.750965 0.688468
vt 0.750965 0.749012
vt 0.811508 0.688468
vt 0.811508 0.749012
vt 0.186539 0.686515
vt 0.186539 0.625971
vt 0.125995 0.686515
vt 0.125995 0.625971
vt 0.686515 0.249036
vt 0.686515 0.188492
vt 0.625971 0.249036
vt 0.625971 0.188492
vt 0.811508 0.438480
vt 0.750965 0.438480
vt 0.811508 0.499024
vt 0.750965 0.499024
vt 0.124042 0.936502
vt 0.124042 0.875958
vt 0.063498 0.936502
vt 0.063498 0.875958
vt 0.998999 0.688468
vt 0.938455 0.688468
vt 0.998999 0.749012
vt 0.938455 0.749012
vt 0.311533 0.811508
vt 0.311533 0.750965
vt 0.250989 0.811508
vt 0.250989 0.750965
vt 0.124042 0.624018
vt 0.124042 0.563474
vt 0.063498 0.624018
vt 0.063498 0.563474
vt 0.874005 0.436527
vt 0.874005 0.375983
vt 0.813461 0.436527
vt 0.813461 0.375983
vt 0.625971 0.563474
vt 0.625971 0.624018
vt 0.686515 0.563474
vt 0.686515 0.624018
vt 0.061545 0.563474
vt 0.001001 0.563474
vt 0.061545 0.624018
vt 0.001001 0.624018
vt 0.561521 0.811508
vt 0.561521 0.750965
vt 0.500977 0.811508
vt 0.500977 0.750965
vt 0.561521 0.188492
vt 0.500977 0.188492
vt 0.561521 0.249036
vt 0.500977 0.249036
vt 0.125995 0.750965
vt 0.125995 0.811508
vt 0.186539 0.750965
vt 0.186539 0.811508
vt 0.874005 0.500977
vt 0.813461 0.500977
vt 0.874005 0.561521
vt 0.813461 0.561521
vt 0.686515 0.811508
vt 0.686515 0.750965
vt 0.625971 0.811508
vt 0.625971 0.750965
vt 0.624018 0.249036
vt 0.624018 0.188492
vt 0.563474 0.249036
vt 0.563474 0.188492
vt 0.561521 0.375983
vt 0.500977 0.375983
vt 0.561521 0.436527
vt 0.500977 0.436527
vt 0.313486 0.438480
vt 0.313486 0.499024
vt 0.374030 0.438480
vt 0.374030 0.499024
vt 0.749012 0.686515
vt 0.749012 0.625971
vt 0.688468 0.686515
vt 0.688468 0.625971
vt 0.561521 0.250989
vt 0.500977 0.250989
vt 0.561521 0.311533
vt 0.500977 0.311533
vt 0.561521 0.438480
vt 0.500977 0.438480
vt 0.561521 0.499024
vt 0.500977 0.499024
vt 0.499024 0.563474
vt 0.438480 0.563474
vt 0.499024 0.624018
vt 0.438480 0.624018
vt 0.125995 0.125995
vt 0.125995 0.186539
vt 0.186539 0.125995
vt 0.186539 0.186539
vt 0.625971 0.500977
vt 0.625971 0.561521
vt 0.686515 0.500977
vt 0.686515 0.561521
vt 0.061545 0.500977
vt 0.001001 0.500977
vt 0.061545 0.561521
vt 0.001001 0.561521
vt 0.811508 0.124042
vt 0.811508 0.063498
vt 0.750965 0.124042
vt 0.750965 0.063498
vt 0.561521 0.561521
vt 0.561521 0.500977
vt 0.500977 0.561521
vt 0.500977 0.500977
vt 0.686515 0.375983
vt 0.625971 0.375983
vt 0.686515 0.436527
vt 0.625971 0.436527
vt 0.311533 0.874005
vt 0.311533 0.813461
vt 0.250989 0.874005
vt 0.250989 0.813461
vt 0.749012 0.438480
vt 0.688468 0.438480
vt 0.749012 0.499024
vt 0.688468 0.499024
vt 0.686515 0.936502
vt 0.686515 0.875958
vt 0.625971 0.936502
vt 0.625971 0.875958
vt 0.624018 0.250989
vt 0.563474 0.250989
vt 0.624018 0.311533
vt 0.563474 0.311533
vt 0.374030 0.750965
vt 0.313486 0.750965
vt 0.374030 0.811508
vt 0.313486 0.811508
vt 0.936502 0.875958
vt 0.875958 0.875958
vt 0.936502 0.936502
vt 0.875958 0.936502
vt 0.311533 0.688468
vt 0.250989 0.688468
vt 0.311533 0.749012
vt 0.250989 0.749012
vt 0.624018 0.624018
vt 0.624018 0.563474
vt 0.563474 0.624018
vt 0.563474 0.563474
vt 0.375983 0.001001
vt 0.375983 0.061545
vt 0.436527 0.001001
vt 0.436527 0.061545
vt 0.374030 0.686515
vt 0.374030 0.625971
vt 0.313486 0.686515
vt 0.313486 0.625971
vt 0.313486 0.500977
vt 0.313486 0.561521
vt 0.374030 0.500977
vt 0.374030 0.561521
vt 0.374030 0.749012
vt 0.374030 0.688468
vt 0.313486 0.749012
vt 0.313486 0.688468
vt 0.749012 0.563474
vt 0.688468 0.563474
vt 0.749012 0.624018
vt 0.688468 0.624018
vt 0.561521 0.938455
vt 0.500977 0.938455
vt 0.561521 0.998999
vt 0.500977 0.998999
vt 0.813461 0.125995
vt 0.813461 0.186539
vt 0.874005 0.125995
vt 0.874005 0.186539
vt 0.811508 0.625971
vt 0.750965 0.625971
vt 0.811508 0.686515
vt 0.750965 0.686515
vt 0.436527 0.186539
vt 0.436527 0.125995
vt 0.375983 0.186539
vt 0.375983 0.125995
vt 0.436527 0.063498
vt 0.375983 0.063498
vt 0.436527 0.124042
vt 0.375983 0.124042
vt 0.874005 0.061545
vt 0.874005 0.001001
vt 0.813461 0.061545
vt 0.813461 0.001001
vt 0.749012 0.061545
vt 0.749012 0.001001
vt 0.688468 0.061545
vt 0.688468 0.001001
vt 0.188492 0.063498
vt 0.188492 0.124042
vt 0.249036 0.063498
vt 0.249036 0.124042
vt 0.499024 0.375983
vt 0.438480 0.375983
vt 0.499024 0.436527
vt 0.438480 0.436527
vt 0.374030 0.813461
vt 0.313486 0.813461
vt 0.374030 0.874005
vt 0.313486 0.874005
vt 0.936502 0.499024
vt 0.936502 0.438480
vt 0.875958 0.499024
vt 0.875958 0.438480
vt 0.750965 0.500977
vt 0.750965 0.561521
vt 0.811508 0.500977
vt 0.811508 0.561521
vt 0.186539 0.813461
vt 0.125995 0.813461
vt 0.186539 0.874005
vt 0.125995 0.874005
vt 0.125995 0.001001
vt 0.125995 0.061545
vt 0.186539 0.001001
vt 0.186539 0.061545
vt 0.375983 0.688468
vt 0.375983 0.749012
vt 0.436527 0.688468
vt 0.436527 0.749012
vt 0.749012 0.749012
vt 0.749012 0.688468
vt 0.688468 0.749012
vt 0.688468 0.688468
vt 0.936502 0.186539
vt 0.936502 0.125995
vt 0.875958 0.186539
vt 0.875958 0.125995
vt 0.188492 0.625971
vt 0.188492 0.686515
vt 0.249036 0.625971
vt 0.249036 0.686515
vt 0.938455 0.250989
vt 0.938455 0.311533
vt 0.998999 0.250989
vt 0.998999 0.311533
vt 0.998999 0.561521
vt 0.998999 0.500977
vt 0.938455 0.561521
vt 0.938455 0.500977
vt 0.124042 0.438480
vt 0.063498 0.438480
vt 0.124042 0.499024
vt 0.063498 0.499024
vt 0.750965 0.125995
vt 0.750965 0.186539
vt 0.811508 0.125995
vt 0.811508 0.186539
vt 0.249036 0.188492
vt 0.188492 0.188492
vt 0.249036 0.249036
vt 0.188492 0.249036
vt 0.249036 0.875958
vt 0.188492 0.875958
vt 0.249036 0.936502
vt 0.188492 0.936502
vt 0.811508 0.875958
vt 0.750965 0.875958
vt 0.811508 0.936502
vt 0.750965 0.936502
vt 0.686515 0.874005
vt 0.686515 0.813461
vt 0.625971 0.874005
vt 0.625971 0.813461
vt 0.374030 0.998999
vt 0.374030 0.938455
vt 0.313486 0.998999
vt 0.313486 0.938455
vt 0.998999 0.125995
vt 0.938455 0.125995
vt 0.998999 0.186539
vt 0.938455 0.186539
vt 0.874005 0.686515
vt 0.874005 0.625971
vt 0.813461 0.686515
vt 0.813461 0.625971
vt 0.001001 0.250989
vt 0.001001 0.311533
vt 0.061545 0.250989
vt 0.061545 0.311533
vt 0.499024 0.125995
vt 0.438480 0.125995
vt 0.499024 0.186539
vt 0.438480 0.186539
vt 0.124042 0.688468
vt 0.063498 0.688468
vt 0.124042 0.749012
vt 0.063498 0.749012
vt 0.001001 0.813461
vt 0.001001 0.874005
vt 0.061545 0.813461
vt 0.061545 0.874005
vt 0.875958 0.063498
vt 0.875958 0.124042
vt 0.936502 0.063498
vt 0.936502 0.124042
vt 0.750965 0.813461
vt 0.750965 0.874005
vt 0.811508 0.813461
vt 0.811508 0.874005
vt 0.186539 0.249036
vt 0.186539 0.188492
vt 0.125995 0.249036
vt 0.125995 0.188492
vt 0.375983 0.875958
vt 0.375983 0.936502
vt 0.436527 0.875958
vt 0.436527 0.936502
vt 0.561521 0.186539
vt 0.561521 0.125995
vt 0.500977 0.186539
vt 0.500977 0.125995
vt 0.186539 0.875958
vt 0.125995 0.875958
vt 0.186539 0.936502
vt 0.125995 0.936502
vt 0.998999 0.686515
vt 0.998999 0.625971
vt 0.938455 0.686515
vt 0.938455 0.625971
vt 0.561521 0.813461
vt 0.500977 0.813461
vt 0.561521 0.874005
vt 0.500977 0.874005
vt 0.499024 0.938455
vt 0.438480 0.938455
vt 0.499024 0.998999
vt 0.438480 0.998999
vt 0.311533 0.125995
vt 0.250989 0.125995
vt 0.311533 0.186539
vt 0.250989 0.186539
vt 0.874005 0.063498
vt 0.813461 0.063498
vt 0.874005 0.124042
vt 0.813461 0.124042
vt 0.186539 0.749012
vt 0.186539 0.688468
vt 0.125995 0.749012
vt 0.125995 0.688468
vt 0.436527 0.375983
vt 0.375983 0.375983
vt 0.436527 0.436527
vt 0.375983 0.436527
vt 0.686515 0.311533
vt 0.686515 0.250989
vt 0.625971 0.311533
vt 0.625971 0.250989
vt 0.499024 0.561521
vt 0.499024 0.500977
vt 0.438480 0.561521
vt 0.438480 0.500977
vt 0.875958 0.001001
vt 0.875958 0.061545
vt 0.936502 0.001001
vt 0.936502 0.061545
vt 0.124042 0.874005
vt 0.124042 0.813461
vt 0.063498 0.874005
vt 0.063498 0.813461
vt 0.749012 0.186539
vt 0.749012 0.125995
vt 0.688468 0.186539
vt 0.688468 0.125995
vt 0.749012 0.936502
vt 0.749012 0.875958
vt 0.688468 0.936502
vt 0.688468 0.875958
vt 0.936502 0.249036
vt 0.936502 0.188492
vt 0.875958 0.249036
vt 0.875958 0.188492
vt 0.249036 0.998999
vt 0.249036 0.938455
vt 0.188492 0.998999
vt 0.188492 0.938455
vt 0.936502 0.688468
vt 0.875958 0.688468
vt 0.936502 0.749012
vt 0.875958 0.749012
vt 0.936502 0.811508
vt 0.936502 0.750965
vt 0.875958 0.811508
vt 0.875958 0.750965
vt 0.998999 0.061545
vt 0.998999 0.001001
vt 0.938455 0.061545
vt 0.938455 0.001001
vt 0.998999 0.499024
vt 0.998999 0.438480
vt 0.938455 0.499024
vt 0.938455 0.438480
vt 0.063498 0.625971
vt 0.063498 0.686515
vt 0.124042 0.625971
vt 0.124042 0.686515
vt 0.938455 0.563474
vt 0.938455 0.624018
vt 0.998999 0.563474
vt 0.998999 0.624018
vt 0.749012 0.188492
vt 0.688468 0.188492
vt 0.749012 0.249036
vt 0.688468 0.249036
vt 0.936502 0.563474
vt 0.875958 0.563474
vt 0.936502 0.624018
vt 0.875958 0.624018
vt 0.499024 0.250989
vt 0.438480 0.250989
vt 0.499024 0.311533
vt 0.438480 0.311533
vt 0.624018 0.938455
vt 0.563474 0.938455
vt 0.624018 0.998999
vt 0.563474 0.998999
vt 0.186539 0.624018
vt 0.186539 0.563474
vt 0.125995 0.624018
vt 0.125995 0.563474
vt 0.749012 0.813461
vt 0.688468 0.813461
vt 0.749012 0.874005
vt 0.688468 0.874005
vt 0.998999 0.124042
vt 0.998999 0.063498
vt 0.938455 0.124042
vt 0.938455 0.063498
vt 0.811508 0.374030
vt 0.811508 0.313486
vt 0.750965 0.374030
vt 0.750965 0.313486
vt 0.624018 0.874005
vt 0.624018 0.813461
vt 0.563474 0.874005
vt 0.563474 0.813461
vt 0.813461 0.313486
vt 0.813461 0.374030
vt 0.874005 0.313486
vt 0.874005 0.374030
vt 0.001001 0.188492
vt 0.001001 0.249036
vt 0.061545 0.188492
vt 0.061545 0.249036
vt 0.249036 0.750965
vt 0.188492 0.750965
vt 0.249036 0.811508
vt 0.188492 0.811508
vt 0.311533 0.625971
vt 0.250989 0.625971
vt 0.311533 0.686515
vt 0.250989 0.686515
vt 0.063498 0.125995
vt 0.063498 0.186539
vt 0.124042 0.125995
vt 0.124042 0.186539
vt 0.186539 0.124042
vt 0.186539 0.063498
vt 0.125995 0.124042
vt 0.125995 0.063498
vt 0.311533 0.875958
vt 0.250989 0.875958
vt 0.311533 0.936502
vt 0.250989 0.936502
vt 0.936502 0.311533
vt 0.936502 0.250989
vt 0.875958 0.311533
vt 0.875958 0.250989
vt 0.188492 0.250989
vt 0.188492 0.311533
vt 0.249036 0.250989
vt 0.249036 0.311533
vt 0.686515 0.688468
vt 0.625971 0.688468
vt 0.686515 0.749012
vt 0.625971 0.749012
vt 0.249036 0.688468
vt 0.188492 0.688468
vt 0.249036 0.749012
vt 0.188492 0.749012
vt 0.063498 0.375983
vt 0.063498 0.436527
vt 0.124042 0.375983
vt 0.124042 0.436527
vt 0.061545 0.375983
vt 0.001001 0.375983
vt 0.061545 0.436527
vt 0.001001 0.436527
vt 0.998999 0.188492
vt 0.938455 0.188492
vt 0.998999 0.249036
vt 0.938455 0.249036
vt 0.686515 0.686515
vt 0.686515 0.625971
vt 0.625971 0.686515
vt 0.625971 0.625971
vt 0.375983 0.313486
vt 0.375983 0.374030
vt 0.436527 0.313486
vt 0.436527 0.374030
s 1
usemtl Minecraft_Sword_Material
f 1/1/1 2/2/1 3/3/1
f 2/2/1 4/4/1 3/3/1
f 5/5/2 6/6/3 7/7/3
f 6/6/3 8/8/2 7/7/3
f 9/9/4 10/10/4 11/11/4
f 10/10/4 12/12/4 11/11/4
f 13/13/5 14/14/6 15/15/6
f 14/14/6 16/16/5 15/15/6
f 17/17/7 18/18/7 19/19/7
f 18/18/7 20/20/7 19/19/7
f 21/21/4 22/22/4 23/23/4
f 22/22/4 24/24/4 23/23/4
f 25/25/8 26/26/8 27/27/8
f 26/26/8 28/28/8 27/27/8
f 29/29/7 30/30/7 31/31/7
f 30/30/7 32/32/7 31/31/7
f 33/33/9 34/34/9 35/35/9
f 34/34/9 36/36/10 35/35/9
f 37/37/7 38/38/7 39/39/7
f 38/38/7 40/40/7 39/39/7
f 41/41/2 42/42/2 43/43/2
f 42/42/2 44/44/2 43/43/2
f 45/45/4 46/46/4 47/47/11
f 46/46/4 48/48/4 47/47/11
f 49/49/9 50/50/10 51/51/10
f 50/50/10 52/52/9 51/51/10
f 53/53/2 54/54/3 55/55/3
f 54/54/3 56/56/2 55/55/3
f 57/57/2 58/58/3 59/59/3
f 58/58/3 60/60/2 59/59/3
f 61/61/9 62/62/9 63/63/9
f 62/62/9 64/64/9 63/63/9
f 65/65/5 66/66/6 67/67/6
f 66/66/6 68/68/5 67/67/6
f 69/69/4 70/70/4 71/71/4
f 70/70/4 72/72/11 71/71/4
f 73/73/5 74/74/5 75/75/5
f 74/74/5 76/76/5 75/75/5
f 77/77/9 78/78/10 79/79/10
f 78/78/10 80/80/9 79/79/10
f 81/81/5 82/82/6 83/83/6
f 82/82/6 84/84/5 83/83/6
f 85/85/4 86/86/4 87/87/4
f 86/86/4 88/88/4 87/87/4
f 89/89/4 90/90/4 91/91/4
f 90/90/4 92/92/4 91/91/4
f 93/93/9 94/94/9 95/95/9
f 94/94/9 96/96/9 95/95/9
f 97/97/2 98/98/3 99/99/3
f 98/98/3 100/100/2 99/99/3
f 101/101/4 102/102/4 103/103/4
f 102/102/4 104/104/4 103/103/4
f 105/105/7 106/106/7 107/107/7
f 106/106/7 108/108/7 107/107/7
f 109/109/1 110/110/1 111/111/1
f 110/110/1 112/112/1 111/111/1
f 113/113/4 114/114/4 115/115/4
f 114/114/4 116/116/4 115/115/4
f 117/117/5 118/118/6 119/119/6
f 118/118/6 120/120/5 119/119/6
f 121/121/7 122/122/7 123/123/7
f 122/122/7 124/124/7 123/123/7
f 125/125/4 126/126/4 127/127/4
f 126/126/4 128/128/4 127/127/4
f 129/129/9 130/130/9 131/131/9
f 130/130/9 132/132/9 131/131/9
f 133/133/9 134/134/10 135/135/10
f 134/134/10 136/136/9 135/135/10
f 137/137/4 138/138/4 139/139/4
f 138/138/4 140/140/4 139/139/4
f 141/141/1 142/142/1 143/143/1
f 142/142/1 144/144/1 143/143/1
f 145/145/10 146/146/10 147/147/10
f 146/146/10 148/148/10 147/147/10
f 149/149/1 150/150/8 151/151/8
f 150/150/8 152/152/8 151/151/8
f 153/153/2 154/154/2 155/155/2
f 154/154/2 156/156/2 155/155/2
f 157/157/2 158/158/2 159/159/2
f 158/158/2 160/160/2 159/159/2
f 161/161/2 162/162/2 163/163/2
f 162/162/2 164/164/2 163/163/2
f 165/165/7 166/166/7 167/167/7
f 166/166/7 168/168/7 167/167/7
f 169/169/4 170/170/4 171/171/4
f 170/170/4 172/172/4 171/171/4
f 173/173/7 174/174/7 175/175/7
f 174/174/7 176/176/7 175/175/7
f 177/177/2 178/178/2 179/179/2
f 178/178/2 180/180/2 179/179/2
f 181/181/7 182/182/7 183/183/7
f 182/182/7 184/184/7 183/183/7
f 185/185/5 186/186/6 187/187/6
f 186/186/6 188/188/5 187/187/6
f 189/189/1 190/190/8 191/191/8
f 190/190/8 192/192/8 191/191/8
f 193/193/4 194/194/4 195/195/4
f 194/194/4 196/196/4 195/195/4
f 197/197/2 198/198/3 199/199/3
f 198/198/3 200/200/2 199/199/3
f 201/201/4 202/202/4 203/203/4
f 202/202/4 204/204/4 203/203/4
f 205/205/4 206/206/4 207/207/4
f 206/206/4 208/208/4 207/207/4
f 209/209/4 210/210/4 211/211/4
f 210/210/4 212/212/4 211/211/4
f 213/213/9 214/214/9 215/215/9
f 214/214/9 216/216/9 215/215/9
f 217/217/7 218/218/7 219/219/7
f 218/218/7 220/220/7 219/219/7
f 221/221/4 222/222/4 223/223/4
f 222/222/4 224/224/11 223/223/4
f 225/225/7 226/226/7 227/227/7
f 226/226/7 228/228/7 227/227/7
f 229/229/1 230/230/1 231/231/1
f 230/230/1 232/232/1 231/231/1
f 233/233/5 234/234/6 235/235/6
f 234/234/6 236/236/5 235/235/6
f 237/237/2 238/238/2 239/239/2
f 238/238/2 240/240/2 239/239/2
f 241/241/9 242/242/9 243/243/9
f 242/242/9 244/244/9 243/243/9
f 245/245/4 246/246/4 247/247/4
f 246/246/4 248/248/4 247/247/4
f 249/249/4 250/250/4 251/251/4
f 250/250/4 252/252/4 251/251/4
f 253/253/2 254/254/2 255/255/2
f 254/254/2 256/256/2 255/255/2
f 257/257/7 258/258/7 259/259/7
f 258/258/7 260/260/7 259/259/7
f 261/261/7 262/262/7 263/263/7
f 262/262/7 264/264/7 263/263/7
f 265/265/4 266/266/4 267/267/4
f 266/266/4 268/268/4 267/267/4
f 269/269/7 270/270/7 271/271/7
f 270/270/7 272/272/7 271/271/7
f 273/273/7 274/274/7 275/275/7
f 274/274/7 276/276/7 275/275/7
f 277/277/4 278/278/4 279/279/4
f 278/278/4 280/280/4 279/279/4
f 281/281/7 282/282/7 283/283/7
f 282/282/7 284/284/7 283/283/7
f 285/285/7 286/286/7 287/287/7
f 286/286/7 288/288/7 287/287/7
f 289/289/4 290/290/4 291/291/4
f 290/290/4 292/292/11 291/291/4
f 293/293/7 294/294/7 295/295/7
f 294/294/7 296/296/7 295/295/7
f 297/297/7 298/298/7 299/299/7
f 298/298/7 300/300/7 299/299/7
f 301/301/4 302/302/4 303/303/4
f 302/302/4 304/304/4 303/303/4
f 305/305/1 306/306/8 307/307/8
f 306/306/8 308/308/8 307/307/8
f 309/309/5 310/310/6 311/311/6
f 310/310/6 312/312/12 311/311/6
f 313/313/7 314/314/7 315/315/7
f 314/314/7 316/316/7 315/315/7
f 317/317/13 318/318/13 319/319/7
f 318/318/13 320/320/7 319/319/7
f 321/321/5 322/322/6 323/323/6
f 322/322/6 324/324/5 323/323/6
f 325/325/4 326/326/11 327/327/4
f 326/326/11 328/328/4 327/327/4
f 329/329/4 330/330/4 331/331/4
f 330/330/4 332/332/4 331/331/4
f 333/333/7 334/334/7 335/335/7
f 334/334/7 336/336/7 335/335/7
f 337/337/4 338/338/4 339/339/4
f 338/338/4 340/340/4 339/339/4
f 341/341/4 342/342/4 343/343/4
f 342/342/4 344/344/4 343/343/4
f 345/345/7 346/346/7 347/347/7
f 346/346/7 348/348/7 347/347/7
f 349/349/8 350/350/8 351/351/8
f 350/350/8 352/352/8 351/351/8
f 353/353/4 354/354/4 355/355/4
f 354/354/4 356/356/4 355/355/4
f 357/357/7 358/358/7 359/359/7
f 358/358/7 360/360/7 359/359/7
f 361/361/9 362/362/10 363/363/10
f 362/362/10 364/364/9 363/363/10
f 365/365/5 366/366/6 367/367/6
f 366/366/6 368/368/5 367/367/6
f 369/369/4 370/370/4 371/371/4
f 370/370/4 372/372/4 371/371/4
f 373/373/4 374/374/4 375/375/4
f 374/374/4 376/376/4 375/375/4
f 377/377/7 378/378/7 379/379/7
f 378/378/7 380/380/7 379/379/7
f 381/381/4 382/382/4 383/383/4
f 382/382/4 384/384/4 383/383/4
f 385/385/13 386/386/7 387/387/7
f 386/386/7 388/388/7 387/387/7
f 389/389/7 390/390/7 391/391/7
f 390/390/7 392/392/7 391/391/7
f 393/393/7 394/394/7 395/395/7
f 394/394/7 396/396/7 395/395/7
f 397/397/4 398/398/4 399/399/4
f 398/398/4 400/400/4 399/399/4
f 401/401/7 402/402/7 403/403/7
f 402/402/7 404/404/7 403/403/7
f 405/405/7 406/406/7 407/407/7
f 406/406/7 408/408/7 407/407/7
f 409/409/1 410/410/8 411/411/8
f 410/410/8 412/412/8 411/411/8
f 413/413/2 414/414/3 415/415/3
f 414/414/3 416/416/2 415/415/3
f 417/417/7 418/418/7 419/419/7
f 418/418/7 420/420/7 419/419/7
f 421/421/4 422/422/4 423/423/4
f 422/422/4 424/424/4 423/423/4
f 425/425/7 426/426/7 427/427/7
f 426/426/7 428/428/7 427/427/7
f 429/429/1 430/430/8 431/431/8
f 430/430/8 432/432/8 431/431/8
f 433/433/7 434/434/7 435/435/7
f 434/434/7 436/436/7 435/435/7
f 437/437/11 438/438/4 439/439/4
f 438/438/4 440/440/4 439/439/4
f 441/441/7 442/442/7 443/443/7
f 442/442/7 444/444/7 443/443/7
f 445/445/7 446/446/7 447/447/7
f 446/446/7 448/448/7 447/447/7
f 449/449/1 450/450/1 451/451/1
f 450/450/1 452/452/1 451/451/1
f 453/453/7 454/454/13 455/455/7
f 454/454/13 456/456/13 455/455/7
f 457/457/7 458/458/7 459/459/7
f 458/458/7 460/460/7 459/459/7
f 461/461/4 462/462/11 463/463/4
f 462/462/11 464/464/4 463/463/4
f 465/465/2 466/466/2 467/467/2
f 466/466/2 468/468/2 467/467/2
f 469/469/7 470/470/7 471/471/7
f 470/470/7 472/472/7 471/471/7
f 473/473/7 474/474/7 475/475/7
f 474/474/7 476/476/7 475/475/7
f 477/477/7 478/478/7 479/479/7
f 478/478/7 480/480/7 479/479/7
f 481/481/4 482/482/4 483/483/4
f 482/482/4 484/484/4 483/483/4
f 485/485/1 486/486/1 487/487/1
f 486/486/1 488/488/1 487/487/1
f 489/489/7 490/490/7 491/491/7
f 490/490/7 492/492/7 491/491/7
f 493/493/2 494/494/3 495/495/3
f 494/494/3 496/496/2 495/495/3
f 497/497/1 498/498/1 499/499/1
f 498/498/1 500/500/1 499/499/1
f 501/501/2 502/502/3 503/503/3
f 502/502/3 504/504/2 503/503/3
f 505/505/4 506/506/4 507/507/4
f 506/506/4 508/508/4 507/507/4
f 509/509/7 510/510/7 511/511/7
f 510/510/7 512/512/7 511/511/7
f 513/513/4 514/514/4 515/515/4
f 514/514/4 516/516/4 515/515/4
f 517/517/7 518/518/7 519/519/7
f 518/518/7 520/520/13 519/519/7
f 521/521/4 522/522/4 523/523/4
f 522/522/4 524/524/4 523/523/4
f 525/525/4 526/526/4 527/527/4
f 526/526/4 528/528/4 527/527/4
f 529/529/7 530/530/7 531/531/7
f 530/530/7 532/532/13 531/531/7
f 533/533/4 534/534/4 535/535/4
f 534/534/4 536/536/4 535/535/4
f 537/537/9 538/538/10 539/539/10
f 538/538/10 540/540/9 539/539/10
f 541/541/9 542/542/10 543/543/10
f 542/542/10 544/544/9 543/543/10
f 545/545/4 546/546/4 547/547/4
f 546/546/4 548/548/4 547/547/4
f 549/549/7 550/550/7 551/551/7
f 550/550/7 552/552/7 551/551/7
f 553/553/5 554/554/5 555/555/5
f 554/554/5 556/556/6 555/555/5
f 557/557/5 558/558/5 559/559/5
f 558/558/5 560/560/6 559/559/5
f 561/561/4 562/562/4 563/563/4
f 562/562/4 564/564/4 563/563/4
f 565/565/4 566/566/4 567/567/11
f 566/566/4 568/568/4 567/567/11
f 569/569/7 570/570/7 571/571/7
f 570/570/7 572/572/13 571/571/7
f 573/573/7 574/574/7 575/575/7
f 574/574/7 576/576/7 575/575/7
f 577/577/14 578/578/14 579/579/14
f 578/578/14 580/580/14 579/579/14
f 581/581/5 582/582/6 583/583/6
f 582/582/6 584/584/5 583/583/6
f 585/585/7 586/586/7 587/587/7
f 586/586/7 588/588/7 587/587/7
f 589/589/7 590/590/7 591/591/7
f 590/590/7 592/592/7 591/591/7
f 593/593/2 594/594/3 595/595/3
f 594/594/3 596/596/2 595/595/3
f 597/597/4 598/598/4 599/599/4
f 598/598/4 600/600/4 599/599/4
f 601/601/7 602/602/7 603/603/7
f 602/602/7 604/604/7 603/603/7
f 605/605/7 606/606/7 607/607/7
f 606/606/7 608/608/7 607/607/7
f 609/609/7 610/610/7 611/611/7
f 610/610/7 612/612/7 611/611/7
f 613/613/4 614/614/4 615/615/4
f 614/614/4 616/616/4 615/615/4
f 617/617/4 618/618/4 619/619/4
f 618/618/4 620/620/4 619/619/4
f 621/621/7 622/622/7 623/623/7
f 622/622/7 624/624/7 623/623/7
f 625/625/7 626/626/7 627/627/7
f 626/626/7 628/628/7 627/627/7
f 629/629/4 630/630/4 631/631/4
f 630/630/4 632/632/4 631/631/4
f 633/633/5 634/634/6 635/635/6
f 634/634/6 636/636/5 635/635/6
f 637/637/4 638/638/4 639/639/11
f 638/638/4 640/640/4 639/639/11
f 641/641/4 642/642/11 643/643/4
f 642/642/11 644/644/4 643/643/4
f 645/645/7 646/646/7 647/647/7
f 646/646/7 648/648/7 647/647/7
f 649/649/5 650/650/6 651/651/6
f 650/650/6 652/652/5 651/651/6
f 653/653/5 654/654/5 655/655/5
f 654/654/5 656/656/6 655/655/5
f 657/657/4 658/658/4 659/659/4
f 658/658/4 660/660/4 659/659/4
f 661/661/13 662/662/7 663/663/7
f 662/662/7 664/664/7 663/663/7
f 665/665/5 666/666/6 667/667/6
f 666/666/6 668/668/5 667/667/6
f 669/669/7 670/670/13 671/671/7
f 670/670/13 672/672/7 671/671/7
f 673/673/4 674/674/4 675/675/4
f 674/674/4 676/676/4 675/675/4
f 677/677/7 678/678/7 679/679/7
f 678/678/7 680/680/7 679/679/7
f 681/681/7 682/682/7 683/683/7
f 682/682/7 684/684/7 683/683/7
f 685/685/4 686/686/4 687/687/4
f 686/686/4 688/688/4 687/687/4
f 689/689/4 690/690/4 691/691/4
f 690/690/4 692/692/4 691/691/4
f 693/693/7 694/694/7 695/695/7
f 694/694/7 696/696/7 695/695/7
f 697/697/4 698/698/11 699/699/4
f 698/698/11 700/700/4 699/699/4
f 701/701/7 702/702/7 703/703/13
f 702/702/7 704/704/7 703/703/13
f 705/705/7 706/706/7 707/707/7
f 706/706/7 708/708/7 707/707/7
f 709/709/5 710/710/6 711/711/6
f 710/710/6 712/712/5 711/711/6
f 713/713/4 714/714/4 715/715/4
f 714/714/4 716/716/4 715/715/4
f 717/717/4 718/718/4 719/719/4
f 718/718/4 720/720/4 719/719/4
f 721/721/9 722/722/10 723/723/10
f 722/722/10 724/724/9 723/723/10
f 725/725/1 726/726/8 727/727/8
f 726/726/8 728/728/8 727/727/8
f 729/729/7 730/730/7 731/731/7
f 730/730/7 732/732/7 731/731/7
f 733/733/4 734/734/4 735/735/4
f 734/734/4 736/736/4 735/735/4
f 737/737/2 738/738/3 739/739/3
f 738/738/3 740/740/2 739/739/3
f 741/741/4 742/742/4 743/743/4
f 742/742/4 744/744/4 743/743/4
f 745/745/7 746/746/7 747/747/13
f 746/746/7 748/748/7 747/747/13
f 749/749/7 750/750/7 751/751/7
f 750/750/7 752/752/7 751/751/7
f 753/753/4 754/754/4 755/755/4
f 754/754/4 756/756/4 755/755/4
f 757/757/4 758/758/4 759/759/4
f 758/758/4 760/760/4 759/759/4
f 761/761/4 762/762/4 763/763/4
f 762/762/4 764/764/4 763/763/4
f 765/765/7 766/766/7 767/767/7
f 766/766/7 768/768/7 767/767/7
f 769/769/8 770/770/8 771/771/8
f 770/770/8 772/772/8 771/771/8
f 773/773/2 774/774/2 775/775/2
f 774/774/2 776/776/2 775/775/2
f 777/777/4 778/778/4 779/779/4
f 778/778/4 780/780/4 779/779/4
f 781/781/2 782/782/3 783/783/3
f 782/782/3 784/784/2 783/783/3
f 785/785/9 786/786/10 787/787/10
f 786/786/10 788/788/9 787/787/10
f 789/789/4 790/790/4 791/791/4
f 790/790/4 792/792/4 791/791/4
f 793/793/4 794/794/4 795/795/4
f 794/794/4 796/796/4 795/795/4
f 797/797/1 798/798/8 799/799/8
f 798/798/8 800/800/8 799/799/8
f 801/801/4 802/802/4 803/803/4
f 802/802/4 804/804/4 803/803/4
f 805/805/7 806/806/7 807/807/7
f 806/806/7 808/808/13 807/807/7
f 809/809/7 810/810/7 811/811/7
f 810/810/7 812/812/7 811/811/7
f 813/813/13 814/814/7 815/815/13
f 814/814/7 816/816/7 815/815/13
f 817/817/7 818/818/7 819/819/7
f 818/818/7 820/820/7 819/819/7
f 821/821/7 822/822/7 823/823/13
f 822/822/7 824/824/7 823/823/13
f 825/825/7 826/826/7 827/827/7
f 826/826/7 828/828/13 827/827/7
f 829/829/9 830/830/10 831/831/10
f 830/830/10 832/832/9 831/831/10
f 833/833/4 834/834/4 835/835/4
f 834/834/4 836/836/4 835/835/4
f 837/837/11 838/838/4 839/839/4
f 838/838/4 840/840/4 839/839/4
f 841/841/4 842/842/4 843/843/4
f 842/842/4 844/844/4 843/843/4
f 845/845/13 846/846/7 847/847/7
f 846/846/7 848/848/7 847/847/7
f 849/849/9 850/850/10 851/851/10
f 850/850/10 852/852/9 851/851/10
f 853/853/7 854/854/7 855/855/7
f 854/854/7 856/856/7 855/855/7
f 857/857/7 858/858/7 859/859/7
f 858/858/7 860/860/7 859/859/7
f 861/861/4 862/862/4 863/863/4
f 862/862/4 864/864/4 863/863/4
f 865/865/7 866/866/7 867/867/7
f 866/866/7 868/868/7 867/867/7
f 869/869/4 870/870/4 871/871/4
f 870/870/4 872/872/4 871/871/4
f 873/873/4 874/874/4 875/875/4
f 874/874/4 876/876/4 875/875/4
f 877/877/4 878/878/4 879/879/4
f 878/878/4 880/880/4 879/879/4
f 881/881/4 882/882/4 883/883/4
f 882/882/4 884/884/4 883/883/4
f 885/885/9 886/886/10 887/887/10
f 886/886/10 888/888/9 887/887/10
f 889/889/5 890/890/6 891/891/6
f 890/890/6 892/892/5 891/891/6
f 893/893/4 894/894/4 895/895/4
f 894/894/4 896/896/4 895/895/4
f 897/897/4 898/898/4 899/899/4
f 898/898/4 900/900/4 899/899/4
f 901/901/7 902/902/13 903/903/7
f 902/902/13 904/904/7 903/903/7
f 905/905/4 906/906/4 907/907/4
f 906/906/4 908/908/4 907/907/4
f 909/909/7 910/910/7 911/911/7
f 910/910/7 912/912/7 911/911/7
f 913/913/4 914/914/4 915/915/4
f 914/914/4 916/916/4 915/915/4
f 917/917/7 918/918/7 919/919/7
f 918/918/7 920/920/7 919/919/7
f 921/921/7 922/922/7 923/923/7
f 922/922/7 924/924/7 923/923/7
f 925/925/4 926/926/4 927/927/4
f 926/926/4 928/928/4 927/927/4
f 929/929/5 930/930/6 931/931/6
f 930/930/6 932/932/5 931/931/6
f 933/933/7 934/934/7 935/935/7
f 934/934/7 936/936/7 935/935/7
f 937/937/4 938/938/4 939/939/4
f 938/938/4 940/940/4 939/939/4
f 941/941/7 942/942/7 943/943/7
f 942/942/7 944/944/7 943/943/7
f 945/945/8 946/946/8 947/947/8
f 946/946/8 948/948/8 947/947/8
f 949/949/4 950/950/4 951/951/4
f 950/950/4 952/952/4 951/951/4
f 953/953/7 954/954/7 955/955/7
f 954/954/7 956/956/7 955/955/7
f 957/957/4 958/958/4 959/959/4
f 958/958/4 960/960/4 959/959/4
f 961/961/1 962/962/1 963/963/1
f 962/962/1 964/964/1 963/963/1
f 965/965/7 966/966/7 967/967/7
f 966/966/7 968/968/7 967/967/7
f 969/969/7 970/970/7 971/971/7
f 970/970/7 972/972/7 971/971/7
f 973/973/4 974/974/4 975/975/4
f 974/974/4 976/976/4 975/975/4
f 977/977/1 978/978/1 979/979/8
f 978/978/1 980/980/8 979/979/8
f 981/981/4 982/982/4 983/983/4
f 982/982/4 984/984/4 983/983/4
f 985/985/4 986/986/4 987/987/4
f 986/986/4 988/988/4 987/987/4
f 989/989/9 990/990/9 991/991/9
f 990/990/9 992/992/9 991/991/9
